<!DOCTYPE svg PUBLIC "-//W3C//DTD SVG 20010904//EN" "http://www.w3.org/TR/2001/REC-SVG-20010904/DTD/svg10.dtd">
<svg version="1.0" xmlns="http://www.w3.org/2000/svg" width="97px" height="97px" viewBox="0 0 970 970" preserveAspectRatio="xMidYMid meet">
<g id="layer101" fill="#00be00" stroke="none">
 <path d="M345 956 c-136 -44 -243 -137 -303 -263 -37 -78 -37 -79 -37 -208 0 -129 0 -130 37 -208 50 -105 130 -185 235 -235 78 -37 79 -37 208 -37 129 0 130 0 208 37 105 50 185 130 235 235 37 78 37 79 37 208 0 129 0 130 -37 208 -51 105 -130 185 -235 235 -74 35 -83 37 -193 39 -75 2 -129 -2 -155 -11z m290 -130 c78 -35 156 -112 192 -190 24 -53 28 -73 28 -151 0 -78 -4 -98 -28 -150 -37 -79 -114 -156 -191 -192 -53 -24 -73 -28 -151 -28 -78 0 -98 4 -150 28 -79 37 -156 114 -192 191 -24 53 -28 73 -28 151 0 78 4 98 28 150 47 100 133 175 242 212 64 21 179 12 250 -21z"/>
 <path d="M445 537 c-3 -7 -4 -91 -3 -186 3 -153 5 -175 21 -185 12 -8 22 -8 35 0 15 10 17 31 20 157 l3 146 127 3 127 3 0 35 0 35 -163 3 c-127 2 -164 0 -167 -11z"/>
 </g>

</svg>