<!DOCTYPE svg PUBLIC "-//W3C//DTD SVG 20010904//EN" "http://www.w3.org/TR/2001/REC-SVG-20010904/DTD/svg10.dtd">
<svg version="1.0" xmlns="http://www.w3.org/2000/svg" width="800px" height="679px" viewBox="0 0 8000 6790" preserveAspectRatio="xMidYMid meet">
<g id="layer101" fill="#00be00" stroke="none">
 <path d="M3030 6775 c-673 -77 -1288 -340 -1810 -774 -99 -82 -314 -295 -400 -396 -421 -495 -679 -1066 -782 -1725 -20 -128 -22 -183 -23 -475 0 -354 7 -435 61 -700 103 -511 338 -1011 670 -1430 108 -136 396 -425 524 -526 533 -421 1124 -666 1772 -734 170 -17 535 -20 689 -5 1339 133 2468 1028 2896 2295 122 363 175 692 175 1095 0 305 -30 552 -101 833 l-29 116 -277 320 c-151 176 -279 322 -283 325 -4 2 -77 -50 -162 -116 -330 -256 -478 -363 -550 -397 -72 -35 -79 -36 -185 -36 -108 0 -112 1 -190 39 -105 51 -245 189 -294 288 -43 87 -58 178 -44 257 23 120 83 212 468 712 157 203 285 373 285 377 0 4 -70 54 -155 111 -464 308 -988 494 -1554 551 -140 14 -560 11 -701 -5z m538 -1066 c85 -18 95 -37 104 -192 4 -73 5 -161 1 -197 -11 -134 27 -194 146 -230 243 -72 441 -206 581 -392 190 -252 251 -561 169 -860 -26 -97 -106 -257 -168 -339 -63 -82 -179 -193 -262 -249 -87 -60 -299 -164 -524 -258 -296 -123 -406 -184 -487 -269 -109 -113 -106 -292 7 -391 88 -78 178 -102 380 -102 233 0 380 31 608 128 126 53 148 51 183 -13 24 -44 144 -450 144 -487 0 -42 -35 -83 -96 -112 -104 -50 -285 -104 -434 -132 -163 -30 -193 -41 -208 -81 -6 -15 -13 -100 -16 -188 -8 -260 -6 -258 -272 -263 -114 -3 -195 0 -222 7 -72 20 -76 33 -82 279 l-5 214 -27 23 c-15 13 -71 40 -125 60 -455 174 -680 443 -724 866 -30 290 66 543 284 744 150 140 334 242 712 395 228 93 305 131 390 195 79 60 120 115 146 198 88 282 -196 497 -601 457 -222 -23 -425 -79 -629 -175 -64 -30 -124 -55 -133 -55 -45 0 -79 81 -163 385 -43 159 -45 202 -9 244 69 83 374 186 712 241 49 8 82 20 100 35 l27 23 6 199 c8 297 11 300 296 302 78 0 164 -4 191 -10z"/>
 <path d="M6075 6439 c-19 -17 -110 -128 -202 -247 -92 -120 -298 -386 -457 -592 -160 -206 -323 -424 -363 -484 -88 -133 -93 -164 -40 -242 44 -64 127 -131 173 -140 80 -15 92 -7 634 414 173 135 319 245 325 246 13 1 -10 28 795 -904 349 -404 655 -754 679 -777 50 -49 98 -68 145 -59 40 8 134 68 194 123 41 39 42 41 42 106 0 64 -2 69 -57 149 -55 80 -1075 1541 -1478 2117 -124 176 -210 291 -229 302 -19 11 -50 19 -78 19 -39 0 -54 -6 -83 -31z"/>
 </g>

</svg>