<!DOCTYPE svg PUBLIC "-//W3C//DTD SVG 20010904//EN" "http://www.w3.org/TR/2001/REC-SVG-20010904/DTD/svg10.dtd">
<svg version="1.0" xmlns="http://www.w3.org/2000/svg" width="98px" height="92px" viewBox="0 0 980 920" preserveAspectRatio="xMidYMid meet">
<g id="layer101" fill="#00be00" stroke="none">
 <path d="M22 908 c-17 -17 -17 -609 0 -626 7 -7 31 -12 55 -12 39 0 43 2 43 25 0 17 -5 25 -18 25 -40 0 -42 14 -42 281 0 267 0 269 41 269 5 0 49 -80 98 -179 50 -98 97 -181 106 -185 9 -3 106 -6 216 -6 l199 0 0 -65 c0 -50 3 -65 14 -65 29 0 46 30 46 81 l0 49 100 0 100 0 0 41 c0 32 -18 74 -81 192 -44 84 -88 160 -96 170 -15 16 -47 17 -393 17 -279 0 -379 -3 -388 -12z"/>
 <path d="M147 723 c-12 -11 -8 -682 3 -704 10 -18 23 -19 219 -19 l208 0 62 69 61 69 0 171 0 171 -25 0 -25 0 0 -155 0 -154 -57 -3 -58 -3 -3 -63 -3 -62 -169 0 -170 0 0 315 c0 264 -3 321 -15 345 -17 32 -18 33 -28 23z m463 -607 c0 -2 -7 -9 -15 -16 -12 -10 -15 -10 -15 4 0 9 7 16 15 16 8 0 15 -2 15 -4z"/>
 <path d="M227 523 c-13 -12 -7 -41 9 -47 24 -9 74 -7 74 3 0 5 -9 12 -19 16 -11 3 -22 12 -25 20 -6 16 -28 20 -39 8z"/>
 <path d="M220 365 l0 -25 199 0 c151 0 200 3 204 13 12 34 -2 37 -204 37 l-199 0 0 -25z"/>
 <path d="M224 245 c-4 -8 -4 -22 0 -30 4 -13 36 -15 194 -15 156 0 192 3 202 15 10 12 10 18 0 30 -19 22 -388 22 -396 0z"/>
 </g>

</svg>